<mxfile host="app.diagrams.net" modified="2021-02-19T10:02:53.536Z" agent="5.0 (Macintosh; Intel Mac OS X 10_15_7) AppleWebKit/537.36 (KHTML, like Gecko) Chrome/88.0.4324.182 Safari/537.36" etag="8b7UtPWrK86Ruwrkdh52" version="14.2.9" type="github">
  <diagram id="R2lEEEUBdFMjLlhIrx00" name="Page-1">
    <mxGraphModel dx="2742" dy="2214" grid="1" gridSize="10" guides="1" tooltips="1" connect="1" arrows="1" fold="1" page="1" pageScale="1" pageWidth="850" pageHeight="1100" math="0" shadow="0" extFonts="Permanent Marker^https://fonts.googleapis.com/css?family=Permanent+Marker">
      <root>
        <mxCell id="0" />
        <mxCell id="1" parent="0" />
        <mxCell id="zPg4MHeuDw2F0yd0gXe6-46" value="" style="rounded=0;whiteSpace=wrap;html=1;sketch=0;fillColor=none;fontSize=25;" vertex="1" parent="1">
          <mxGeometry x="-140" y="-60" width="1740" height="780" as="geometry" />
        </mxCell>
        <mxCell id="zPg4MHeuDw2F0yd0gXe6-44" style="edgeStyle=orthogonalEdgeStyle;curved=1;rounded=1;sketch=0;orthogonalLoop=1;jettySize=auto;html=1;exitX=0.5;exitY=0;exitDx=0;exitDy=0;entryX=0.5;entryY=1;entryDx=0;entryDy=0;endArrow=block;endFill=0;fontSize=25;startSize=7;endSize=17;" edge="1" parent="1" source="zPg4MHeuDw2F0yd0gXe6-40" target="zPg4MHeuDw2F0yd0gXe6-15">
          <mxGeometry relative="1" as="geometry" />
        </mxCell>
        <mxCell id="zPg4MHeuDw2F0yd0gXe6-40" value="" style="rounded=1;whiteSpace=wrap;html=1;sketch=0;fontSize=25;dashed=1;strokeColor=#666666;fillColor=#f5f5f5;fontColor=#333333;" vertex="1" parent="1">
          <mxGeometry x="570" y="410" width="970" height="255" as="geometry" />
        </mxCell>
        <mxCell id="zPg4MHeuDw2F0yd0gXe6-43" style="edgeStyle=orthogonalEdgeStyle;curved=1;rounded=1;sketch=0;orthogonalLoop=1;jettySize=auto;html=1;exitX=0.5;exitY=0;exitDx=0;exitDy=0;entryX=0.5;entryY=1;entryDx=0;entryDy=0;endArrow=block;endFill=0;fontSize=25;endSize=17;" edge="1" parent="1" source="zPg4MHeuDw2F0yd0gXe6-39" target="zPg4MHeuDw2F0yd0gXe6-9">
          <mxGeometry relative="1" as="geometry" />
        </mxCell>
        <mxCell id="zPg4MHeuDw2F0yd0gXe6-39" value="" style="rounded=1;whiteSpace=wrap;html=1;sketch=0;fontSize=25;dashed=1;strokeColor=#9673a6;fillColor=#e1d5e7;" vertex="1" parent="1">
          <mxGeometry x="-80" y="410" width="620" height="250" as="geometry" />
        </mxCell>
        <mxCell id="zPg4MHeuDw2F0yd0gXe6-2" value="&lt;span style=&quot;font-size: 25px;&quot;&gt;BuildContext&lt;/span&gt;" style="rounded=1;whiteSpace=wrap;html=1;fontStyle=0;fillColor=#d5e8d4;fontSize=25;strokeColor=none;" vertex="1" parent="1">
          <mxGeometry x="750" y="110" width="220" height="60" as="geometry" />
        </mxCell>
        <mxCell id="zPg4MHeuDw2F0yd0gXe6-6" style="edgeStyle=orthogonalEdgeStyle;rounded=0;orthogonalLoop=1;jettySize=auto;html=1;exitX=0.5;exitY=0;exitDx=0;exitDy=0;entryX=0.5;entryY=1;entryDx=0;entryDy=0;fontStyle=0;endArrow=block;endFill=0;fontSize=25;endSize=17;" edge="1" parent="1" source="zPg4MHeuDw2F0yd0gXe6-4" target="zPg4MHeuDw2F0yd0gXe6-5">
          <mxGeometry relative="1" as="geometry" />
        </mxCell>
        <mxCell id="zPg4MHeuDw2F0yd0gXe6-7" style="edgeStyle=orthogonalEdgeStyle;rounded=0;orthogonalLoop=1;jettySize=auto;html=1;exitX=1;exitY=0.5;exitDx=0;exitDy=0;entryX=0;entryY=0.5;entryDx=0;entryDy=0;curved=1;fontStyle=0;endArrow=block;endFill=0;dashed=1;fontSize=25;endSize=17;" edge="1" parent="1" source="zPg4MHeuDw2F0yd0gXe6-4" target="zPg4MHeuDw2F0yd0gXe6-2">
          <mxGeometry relative="1" as="geometry" />
        </mxCell>
        <mxCell id="zPg4MHeuDw2F0yd0gXe6-36" style="edgeStyle=orthogonalEdgeStyle;curved=1;rounded=1;sketch=0;orthogonalLoop=1;jettySize=auto;html=1;exitX=0;exitY=0.5;exitDx=0;exitDy=0;entryX=1;entryY=0.5;entryDx=0;entryDy=0;endArrow=classic;endFill=1;fontSize=25;fontStyle=0;endSize=17;" edge="1" parent="1" source="zPg4MHeuDw2F0yd0gXe6-4" target="zPg4MHeuDw2F0yd0gXe6-35">
          <mxGeometry relative="1" as="geometry" />
        </mxCell>
        <mxCell id="zPg4MHeuDw2F0yd0gXe6-4" value="&lt;span style=&quot;font-size: 25px;&quot;&gt;Element&lt;/span&gt;" style="rounded=1;whiteSpace=wrap;html=1;fontStyle=0;fillColor=#dae8fc;fontSize=25;strokeColor=none;" vertex="1" parent="1">
          <mxGeometry x="570" y="110" width="120" height="60" as="geometry" />
        </mxCell>
        <mxCell id="zPg4MHeuDw2F0yd0gXe6-5" value="&lt;span style=&quot;font-size: 25px;&quot;&gt;DiagnosticableTree&lt;/span&gt;" style="rounded=1;whiteSpace=wrap;html=1;fontStyle=0;fillColor=#dae8fc;fontSize=25;strokeColor=none;" vertex="1" parent="1">
          <mxGeometry x="500" y="-20" width="260" height="60" as="geometry" />
        </mxCell>
        <mxCell id="zPg4MHeuDw2F0yd0gXe6-14" style="edgeStyle=orthogonalEdgeStyle;rounded=1;sketch=0;orthogonalLoop=1;jettySize=auto;html=1;exitX=0.5;exitY=0;exitDx=0;exitDy=0;entryX=0.5;entryY=1;entryDx=0;entryDy=0;fontStyle=0;endArrow=block;endFill=0;fontSize=25;endSize=17;" edge="1" parent="1" source="zPg4MHeuDw2F0yd0gXe6-9" target="zPg4MHeuDw2F0yd0gXe6-4">
          <mxGeometry relative="1" as="geometry" />
        </mxCell>
        <mxCell id="zPg4MHeuDw2F0yd0gXe6-9" value="ComponentElement" style="rounded=1;whiteSpace=wrap;html=1;sketch=0;fontStyle=0;fillColor=#dae8fc;fontSize=25;strokeColor=none;" vertex="1" parent="1">
          <mxGeometry x="110" y="270" width="240" height="60" as="geometry" />
        </mxCell>
        <mxCell id="zPg4MHeuDw2F0yd0gXe6-11" value="ProxyElement" style="rounded=1;whiteSpace=wrap;html=1;sketch=0;fontStyle=0;fillColor=#dae8fc;fontSize=25;strokeColor=none;" vertex="1" parent="1">
          <mxGeometry x="-30" y="450" width="220" height="60" as="geometry" />
        </mxCell>
        <mxCell id="zPg4MHeuDw2F0yd0gXe6-12" value="StatefulElement" style="rounded=1;whiteSpace=wrap;html=1;sketch=0;fontStyle=0;fillColor=#ffe6cc;fontSize=25;strokeColor=none;" vertex="1" parent="1">
          <mxGeometry x="-30" y="560" width="220" height="60" as="geometry" />
        </mxCell>
        <mxCell id="zPg4MHeuDw2F0yd0gXe6-13" value="StatelessElement" style="rounded=1;whiteSpace=wrap;html=1;sketch=0;fontStyle=0;fillColor=#ffe6cc;fontSize=25;strokeColor=none;" vertex="1" parent="1">
          <mxGeometry x="270" y="450" width="225" height="60" as="geometry" />
        </mxCell>
        <mxCell id="zPg4MHeuDw2F0yd0gXe6-22" style="edgeStyle=orthogonalEdgeStyle;rounded=1;sketch=0;orthogonalLoop=1;jettySize=auto;html=1;exitX=0.5;exitY=0;exitDx=0;exitDy=0;endArrow=block;endFill=0;fontSize=25;fontStyle=0;entryX=0.5;entryY=1;entryDx=0;entryDy=0;endSize=17;" edge="1" parent="1" source="zPg4MHeuDw2F0yd0gXe6-15" target="zPg4MHeuDw2F0yd0gXe6-4">
          <mxGeometry relative="1" as="geometry">
            <mxPoint x="560" y="200" as="targetPoint" />
          </mxGeometry>
        </mxCell>
        <mxCell id="zPg4MHeuDw2F0yd0gXe6-48" style="edgeStyle=orthogonalEdgeStyle;curved=1;rounded=1;sketch=0;orthogonalLoop=1;jettySize=auto;html=1;exitX=1;exitY=0.5;exitDx=0;exitDy=0;entryX=0;entryY=0.5;entryDx=0;entryDy=0;startSize=7;endArrow=classicThin;endFill=1;endSize=17;strokeWidth=2;fontSize=25;" edge="1" parent="1" source="zPg4MHeuDw2F0yd0gXe6-15" target="zPg4MHeuDw2F0yd0gXe6-47">
          <mxGeometry relative="1" as="geometry" />
        </mxCell>
        <mxCell id="zPg4MHeuDw2F0yd0gXe6-15" value="RenderObjectElement" style="rounded=1;whiteSpace=wrap;html=1;sketch=0;fontStyle=0;fillColor=#dae8fc;fontSize=25;strokeColor=none;" vertex="1" parent="1">
          <mxGeometry x="920" y="270" width="270" height="60" as="geometry" />
        </mxCell>
        <mxCell id="zPg4MHeuDw2F0yd0gXe6-17" value="&lt;div style=&quot;text-align: left; font-size: 25px;&quot;&gt;&lt;span style=&quot;font-size: 25px;&quot;&gt;&lt;font face=&quot;helvetica&quot; style=&quot;font-size: 25px;&quot;&gt;RootRenderObjectElement&lt;/font&gt;&lt;/span&gt;&lt;/div&gt;" style="rounded=1;whiteSpace=wrap;html=1;sketch=0;fontStyle=0;fillColor=#dae8fc;strokeColor=#6c8ebf;fontSize=25;" vertex="1" parent="1">
          <mxGeometry x="600" y="450" width="380" height="60" as="geometry" />
        </mxCell>
        <mxCell id="zPg4MHeuDw2F0yd0gXe6-18" value="&lt;div style=&quot;text-align: left; font-size: 25px;&quot;&gt;&lt;span style=&quot;font-size: 25px;&quot;&gt;&lt;font face=&quot;helvetica&quot; style=&quot;font-size: 25px;&quot;&gt;SingleChildRenderObjectElement&lt;/font&gt;&lt;/span&gt;&lt;/div&gt;" style="rounded=1;whiteSpace=wrap;html=1;sketch=0;fontStyle=0;fillColor=#ffe6cc;strokeColor=#d79b00;fontSize=25;" vertex="1" parent="1">
          <mxGeometry x="1080" y="560" width="410" height="60" as="geometry" />
        </mxCell>
        <mxCell id="zPg4MHeuDw2F0yd0gXe6-19" value="&lt;div style=&quot;text-align: left; font-size: 25px;&quot;&gt;&lt;span style=&quot;font-size: 25px;&quot;&gt;&lt;font face=&quot;helvetica&quot; style=&quot;font-size: 25px;&quot;&gt;MultiChildRenderObjectElement&lt;/font&gt;&lt;/span&gt;&lt;/div&gt;" style="rounded=1;whiteSpace=wrap;html=1;sketch=0;fontStyle=0;fillColor=#ffe6cc;strokeColor=#d79b00;fontSize=25;" vertex="1" parent="1">
          <mxGeometry x="600" y="560" width="380" height="60" as="geometry" />
        </mxCell>
        <mxCell id="zPg4MHeuDw2F0yd0gXe6-20" value="&lt;div style=&quot;text-align: left; font-size: 25px;&quot;&gt;&lt;font face=&quot;helvetica&quot; style=&quot;font-size: 25px;&quot;&gt;&lt;span style=&quot;font-size: 25px;&quot;&gt;LeafRenderObjectElement&lt;/span&gt;&lt;/font&gt;&lt;br style=&quot;font-size: 25px;&quot;&gt;&lt;/div&gt;" style="rounded=1;whiteSpace=wrap;html=1;sketch=0;fontStyle=0;fillColor=#dae8fc;strokeColor=#6c8ebf;fontSize=25;" vertex="1" parent="1">
          <mxGeometry x="1080" y="450" width="410" height="60" as="geometry" />
        </mxCell>
        <mxCell id="zPg4MHeuDw2F0yd0gXe6-35" value="Widget" style="rounded=1;whiteSpace=wrap;html=1;sketch=0;fillColor=#dae8fc;fontSize=25;fontStyle=0;strokeColor=none;" vertex="1" parent="1">
          <mxGeometry x="380" y="110" width="120" height="60" as="geometry" />
        </mxCell>
        <mxCell id="zPg4MHeuDw2F0yd0gXe6-47" value="RenderObject" style="rounded=1;whiteSpace=wrap;html=1;sketch=0;fillColor=#dae8fc;fontSize=25;fontStyle=0;strokeColor=none;" vertex="1" parent="1">
          <mxGeometry x="1275" y="270" width="200" height="60" as="geometry" />
        </mxCell>
        <mxCell id="zPg4MHeuDw2F0yd0gXe6-51" value="抽象类" style="rounded=1;whiteSpace=wrap;html=1;sketch=0;fillColor=#dae8fc;fontSize=25;fontStyle=0;strokeColor=none;" vertex="1" parent="1">
          <mxGeometry x="-90" width="120" height="60" as="geometry" />
        </mxCell>
        <mxCell id="zPg4MHeuDw2F0yd0gXe6-52" value="接口" style="rounded=1;whiteSpace=wrap;html=1;sketch=0;fillColor=#d5e8d4;fontSize=25;fontStyle=0;strokeColor=none;" vertex="1" parent="1">
          <mxGeometry x="-90" y="70" width="120" height="60" as="geometry" />
        </mxCell>
        <mxCell id="zPg4MHeuDw2F0yd0gXe6-53" value="普通类" style="rounded=1;whiteSpace=wrap;html=1;sketch=0;fillColor=#ffe6cc;fontSize=25;fontStyle=0;strokeColor=none;" vertex="1" parent="1">
          <mxGeometry x="-90" y="140" width="120" height="60" as="geometry" />
        </mxCell>
      </root>
    </mxGraphModel>
  </diagram>
</mxfile>
